# xmcd CD database file
#
# Track frame offsets:
#	150
#	19280
#	35920
#	52453
#	72003
#	90280
#	111518
#	126383
#	152738
#	177635
#
# Disc length: 2748 seconds
#
# Revision: 0
# Processed by: cddbd v1.5PL3 Copyright (c) Steve Scherf et al.
# Submitted via: CDex 1.51
#
DISCID=950aba0a
DTITLE=Miss Molly - In The Garden
DYEAR=1993
DGENRE=Blues
TTITLE0=Rock Me With Your Sexy Ways
TTITLE1=Open All Night
TTITLE2=With or Without My Pride
TTITLE3=Hold It Like It Was Your Own
TTITLE4=Dig Up Your Love
TTITLE5=Find a Way Home
TTITLE6=Overdrawn at the Bank of Love
TTITLE7=Damn Your Eyes
TTITLE8=You Can Have My Husband
TTITLE9=In The Garden
EXTD=YEAR: 1993
EXTT0=
EXTT1=
EXTT2=
EXTT3=
EXTT4=
EXTT5=
EXTT6=
EXTT7=
EXTT8=
EXTT9=
PLAYORDER=
